<mxfile host="app.diagrams.net" agent="Mozilla/5.0 (Windows NT 10.0; Win64; x64) AppleWebKit/537.36 (KHTML, like Gecko) Chrome/140.0.0.0 Safari/537.36 Edg/140.0.0.0" version="28.2.4">
  <diagram name="Página-1" id="FjAaBFp-rPTxZ8UkR7-3">
    <mxGraphModel dx="2182" dy="1209" grid="1" gridSize="10" guides="1" tooltips="1" connect="1" arrows="1" fold="1" page="1" pageScale="1" pageWidth="827" pageHeight="1169" math="0" shadow="0">
      <root>
        <mxCell id="0" />
        <mxCell id="1" parent="0" />
        <mxCell id="GaoD48-COixHONRnJYP7-3" value="" style="edgeStyle=orthogonalEdgeStyle;rounded=0;orthogonalLoop=1;jettySize=auto;html=1;" edge="1" parent="1" source="GaoD48-COixHONRnJYP7-1" target="GaoD48-COixHONRnJYP7-2">
          <mxGeometry relative="1" as="geometry" />
        </mxCell>
        <mxCell id="GaoD48-COixHONRnJYP7-1" value="I" style="ellipse;whiteSpace=wrap;html=1;" vertex="1" parent="1">
          <mxGeometry x="40" y="40" width="120" height="80" as="geometry" />
        </mxCell>
        <mxCell id="GaoD48-COixHONRnJYP7-5" value="" style="edgeStyle=orthogonalEdgeStyle;rounded=0;orthogonalLoop=1;jettySize=auto;html=1;" edge="1" parent="1" source="GaoD48-COixHONRnJYP7-2" target="GaoD48-COixHONRnJYP7-4">
          <mxGeometry relative="1" as="geometry" />
        </mxCell>
        <mxCell id="GaoD48-COixHONRnJYP7-2" value="&lt;br&gt;&lt;div&gt;soma=0&lt;/div&gt;" style="whiteSpace=wrap;html=1;" vertex="1" parent="1">
          <mxGeometry x="240" y="50" width="120" height="60" as="geometry" />
        </mxCell>
        <mxCell id="GaoD48-COixHONRnJYP7-9" value="" style="edgeStyle=orthogonalEdgeStyle;rounded=0;orthogonalLoop=1;jettySize=auto;html=1;" edge="1" parent="1" source="GaoD48-COixHONRnJYP7-4" target="GaoD48-COixHONRnJYP7-8">
          <mxGeometry relative="1" as="geometry" />
        </mxCell>
        <mxCell id="GaoD48-COixHONRnJYP7-4" value="ler quantidade" style="shape=parallelogram;perimeter=parallelogramPerimeter;whiteSpace=wrap;html=1;fixedSize=1;" vertex="1" parent="1">
          <mxGeometry x="240" y="190" width="120" height="60" as="geometry" />
        </mxCell>
        <mxCell id="GaoD48-COixHONRnJYP7-15" value="" style="edgeStyle=orthogonalEdgeStyle;rounded=0;orthogonalLoop=1;jettySize=auto;html=1;" edge="1" parent="1" source="GaoD48-COixHONRnJYP7-8" target="GaoD48-COixHONRnJYP7-14">
          <mxGeometry relative="1" as="geometry" />
        </mxCell>
        <mxCell id="GaoD48-COixHONRnJYP7-8" value="ler num" style="shape=parallelogram;perimeter=parallelogramPerimeter;whiteSpace=wrap;html=1;fixedSize=1;" vertex="1" parent="1">
          <mxGeometry x="440" y="190" width="120" height="60" as="geometry" />
        </mxCell>
        <mxCell id="GaoD48-COixHONRnJYP7-17" value="" style="edgeStyle=orthogonalEdgeStyle;rounded=0;orthogonalLoop=1;jettySize=auto;html=1;" edge="1" parent="1" source="GaoD48-COixHONRnJYP7-14" target="GaoD48-COixHONRnJYP7-16">
          <mxGeometry relative="1" as="geometry" />
        </mxCell>
        <mxCell id="GaoD48-COixHONRnJYP7-14" value="quantidade=quantidade-1&lt;div&gt;soma=soma+num&lt;/div&gt;" style="whiteSpace=wrap;html=1;" vertex="1" parent="1">
          <mxGeometry x="640" y="190" width="140" height="60" as="geometry" />
        </mxCell>
        <mxCell id="GaoD48-COixHONRnJYP7-19" style="edgeStyle=orthogonalEdgeStyle;rounded=0;orthogonalLoop=1;jettySize=auto;html=1;entryX=0;entryY=0;entryDx=0;entryDy=0;" edge="1" parent="1" source="GaoD48-COixHONRnJYP7-16" target="GaoD48-COixHONRnJYP7-14">
          <mxGeometry relative="1" as="geometry">
            <Array as="points">
              <mxPoint x="925" y="141" />
              <mxPoint x="500" y="141" />
              <mxPoint x="500" y="190" />
            </Array>
          </mxGeometry>
        </mxCell>
        <mxCell id="GaoD48-COixHONRnJYP7-22" value="nao" style="edgeLabel;html=1;align=center;verticalAlign=middle;resizable=0;points=[];" vertex="1" connectable="0" parent="GaoD48-COixHONRnJYP7-19">
          <mxGeometry x="-0.2703" y="-1" relative="1" as="geometry">
            <mxPoint as="offset" />
          </mxGeometry>
        </mxCell>
        <mxCell id="GaoD48-COixHONRnJYP7-21" value="" style="edgeStyle=orthogonalEdgeStyle;rounded=0;orthogonalLoop=1;jettySize=auto;html=1;" edge="1" parent="1" source="GaoD48-COixHONRnJYP7-16">
          <mxGeometry relative="1" as="geometry">
            <mxPoint x="1095.000034626054" y="220.0526315789475" as="targetPoint" />
          </mxGeometry>
        </mxCell>
        <mxCell id="GaoD48-COixHONRnJYP7-23" value="sim" style="edgeLabel;html=1;align=center;verticalAlign=middle;resizable=0;points=[];" vertex="1" connectable="0" parent="GaoD48-COixHONRnJYP7-21">
          <mxGeometry x="-0.2375" relative="1" as="geometry">
            <mxPoint as="offset" />
          </mxGeometry>
        </mxCell>
        <mxCell id="GaoD48-COixHONRnJYP7-16" value="soma=quantidade" style="rhombus;whiteSpace=wrap;html=1;" vertex="1" parent="1">
          <mxGeometry x="860" y="161.25" width="130" height="117.5" as="geometry" />
        </mxCell>
        <mxCell id="GaoD48-COixHONRnJYP7-26" value="" style="edgeStyle=orthogonalEdgeStyle;rounded=0;orthogonalLoop=1;jettySize=auto;html=1;" edge="1" parent="1" source="GaoD48-COixHONRnJYP7-24" target="GaoD48-COixHONRnJYP7-25">
          <mxGeometry relative="1" as="geometry" />
        </mxCell>
        <mxCell id="GaoD48-COixHONRnJYP7-24" value="escrever &quot; a soma dos números que escreveste é: &quot; . Soma" style="shape=parallelogram;perimeter=parallelogramPerimeter;whiteSpace=wrap;html=1;fixedSize=1;" vertex="1" parent="1">
          <mxGeometry x="1100" y="190" width="390" height="60" as="geometry" />
        </mxCell>
        <mxCell id="GaoD48-COixHONRnJYP7-25" value="F" style="ellipse;whiteSpace=wrap;html=1;" vertex="1" parent="1">
          <mxGeometry x="1255" y="320" width="80" height="80" as="geometry" />
        </mxCell>
      </root>
    </mxGraphModel>
  </diagram>
</mxfile>
